<mxfile host="app.diagrams.net" modified="2024-06-03T03:24:01.841Z" agent="Mozilla/5.0 (Windows NT 10.0; Win64; x64) AppleWebKit/537.36 (KHTML, like Gecko) Chrome/109.0.0.0 Safari/537.36" version="21.2.9" etag="AWdhD_IHN66OVK9XgXTI" type="github">
  <diagram name="第 1 页" id="7sHURrLWMdzqhiQ62Z6Y">
    <mxGraphModel>
      <root>
        <mxCell id="0" />
        <mxCell id="1" parent="0" />
      </root>
    </mxGraphModel>
  </diagram>
</mxfile>
